<svg xmlns="http://www.w3.org/2000/svg" xmlns:xlink="http://www.w3.org/1999/xlink" width="25" height="25" viewBox="0 0 25 25">
  <defs>
    <clipPath id="clip-Settings_Gear_Icon">
      <rect width="25" height="25"/>
    </clipPath>
  </defs>
  <g id="Settings_Gear_Icon" data-name="Settings Gear Icon" clip-path="url(#clip-Settings_Gear_Icon)">
    <rect width="25" height="25" fill="#fff"/>
    <path id="Exclusion_2" data-name="Exclusion 2" d="M-6102.962-7520.984h-3.283l-.858-2.577a7.892,7.892,0,0,1-1.073-.429l-2.993,1.5-2.322-2.322,1.5-2.993a8.287,8.287,0,0,1-.429-1.072l-2.576-.86v-3.283l2.576-.858a8.3,8.3,0,0,1,.429-1.073l-1.5-2.994,2.322-2.32,2.992,1.5a8.279,8.279,0,0,1,1.073-.429l.858-2.576h3.283l.86,2.576a8.279,8.279,0,0,1,1.073.429l2.993-1.5,2.32,2.322-1.5,2.993a8,8,0,0,1,.428,1.072l2.577.86v3.281l-2.577.86a8.21,8.21,0,0,1-.428,1.072l1.5,2.993-2.322,2.322-2.994-1.5a8.2,8.2,0,0,1-1.072.427l-.859,2.577Zm-1.635-13.516a3.4,3.4,0,0,0-3.4,3.4,3.4,3.4,0,0,0,3.4,3.4,3.4,3.4,0,0,0,3.4-3.4A3.4,3.4,0,0,0-6104.6-7534.5Z" transform="translate(6117.207 7543.996)" fill="#505050"/>
  </g>
</svg>
