<svg xmlns="http://www.w3.org/2000/svg" xmlns:xlink="http://www.w3.org/1999/xlink" width="180" height="190" viewBox="0 0 180 190">
  <defs>
    <clipPath id="clip-White_Transparent_Play_Button">
      <rect width="180" height="190"/>
    </clipPath>
  </defs>
  <g id="White_Transparent_Play_Button" data-name="White Transparent Play Button" clip-path="url(#clip-White_Transparent_Play_Button)">
    <rect width="180" height="190" fill="#fff"/>
    <path id="Subtraction_2" data-name="Subtraction 2" d="M14611,19822a71.716,71.716,0,0,1-40.259-12.3,72.228,72.228,0,0,1-26.086-31.68,71.9,71.9,0,0,1,6.639-68.281,72.206,72.206,0,0,1,31.679-26.086,71.9,71.9,0,0,1,68.282,6.639,72.213,72.213,0,0,1,26.086,31.678,71.9,71.9,0,0,1-6.639,68.281,72.171,72.171,0,0,1-31.678,26.086A71.494,71.494,0,0,1,14611,19822Zm-18-104.826a3.007,3.007,0,0,0-3,3v59.643a2.993,2.993,0,0,0,4.492,2.6l51.977-29.824a3,3,0,0,0,0-5.2l-51.977-29.818A2.947,2.947,0,0,0,14593,19717.176Z" transform="translate(-14521 -19655)" fill="#fff" opacity="0.6"/>
  </g>
</svg>
