<svg xmlns="http://www.w3.org/2000/svg" xmlns:xlink="http://www.w3.org/1999/xlink" width="254" height="143" viewBox="0 0 254 143">
  <defs>
    <clipPath id="clip-Moving_Screen_Icon">
      <rect width="254" height="143"/>
    </clipPath>
  </defs>
  <g id="Moving_Screen_Icon" data-name="Moving Screen Icon" clip-path="url(#clip-Moving_Screen_Icon)">
    <g id="Group_134" data-name="Group 134" transform="translate(-5993 15565)">
      <path id="Union_9" data-name="Union 9" d="M179.341,75.541c-34.148.156-80.763-.281-115.194-.7a19.005,19.005,0,0,1-37.095-.5c-6.039-.089-9.507-.144-9.507-.144S-.239,74.01,0,61.7s7.06-10,7.06-10,1.481-18.455,33.8-22.974c20.158-2.818,25.195-3.2,26.131-3.1,3.073-2.6,25.094-20.725,45.247-23.6,21.72-3.1,46.071-3.426,66.694,4.571s30.615,13.736,30.615,13.736,14.5.275,14.7,1.092c.056.33.2,1.192-.453,1.552-1.993.264-7.166.6-7.166.6s10.093,9.124,14.2,14.973c.694.988,4.053,5.58,4.9,6.408,1.409-.084,4.392.148,4.672,2.826.337,3.223.5,12.316,0,13.91s-2.248,9.421-16.458,12.5a60.941,60.941,0,0,1-7.812.685,19.006,19.006,0,0,1-36.8.652Z" transform="translate(5999.345 -15518.464)" fill="#505050"/>
      <rect id="Rectangle_55" data-name="Rectangle 55" width="99" height="37" rx="4" transform="translate(6087 -15558)" fill="#505050"/>
      <path id="Path_66" data-name="Path 66" d="M4.256,0l7.93,1.788L10.873,14.246,0,17Z" transform="translate(6104 -15528)" fill="#505050"/>
      <path id="Path_67" data-name="Path 67" d="M7.93,0,0,1.788,1.313,14.246,12.186,17Z" transform="translate(6161 -15525)" fill="#505050"/>
    </g>
  </g>
</svg>
