<?xml version="1.0" encoding="UTF-8" standalone="no"?>
<!-- Created with Inkscape (http://www.inkscape.org/) -->

<svg
   xmlns:dc="http://purl.org/dc/elements/1.1/"
   xmlns:cc="http://creativecommons.org/ns#"
   xmlns:rdf="http://www.w3.org/1999/02/22-rdf-syntax-ns#"
   xmlns:svg="http://www.w3.org/2000/svg"
   xmlns="http://www.w3.org/2000/svg"
   xmlns:sodipodi="http://sodipodi.sourceforge.net/DTD/sodipodi-0.dtd"
   xmlns:inkscape="http://www.inkscape.org/namespaces/inkscape"
   width="517mm"
   height="200mm"
   viewBox="0 -30 517 200"
   version="1.1"
   id="svg921"
   inkscape:version="0.92.4 (5da689c313, 2019-01-14)"
   sodipodi:docname="adcast.svg">
  <defs
     id="defs915">
    <clipPath
       clipPathUnits="userSpaceOnUse"
       id="clipPath84">
      <path
         d="M 0,1315.434 H 1799 V 0 H 0 Z"
         id="path82"
         inkscape:connector-curvature="0" />
    </clipPath>
  </defs>
  <sodipodi:namedview
     id="base"
     pagecolor="#ffffff"
     bordercolor="#666666"
     borderopacity="1.0"
     inkscape:pageopacity="0.0"
     inkscape:pageshadow="2"
     inkscape:zoom="3.9597979"
     inkscape:cx="1051.0352"
     inkscape:cy="190.51694"
     inkscape:document-units="mm"
     inkscape:current-layer="g78"
     showgrid="false"
     inkscape:window-width="1912"
     inkscape:window-height="1167"
     inkscape:window-x="0"
     inkscape:window-y="0"
     inkscape:window-maximized="0"
     showguides="true"
     inkscape:guide-bbox="true"
     inkscape:snap-global="true">
    <sodipodi:guide
       position="278.19047,224.51786"
       orientation="1,0"
       id="guide15"
       inkscape:locked="false" />
    <sodipodi:guide
       position="158.56101,62.744047"
       orientation="0,1"
       id="guide17"
       inkscape:locked="false" />
    <sodipodi:guide
       position="90.525297,137.20536"
       orientation="0,1"
       id="guide19"
       inkscape:locked="false" />
    <sodipodi:guide
       position="85.422619,116.79464"
       orientation="0,1"
       id="guide36"
       inkscape:locked="false" />
    <sodipodi:guide
       position="163.96985,73.632755"
       orientation="0,1"
       id="guide38"
       inkscape:locked="false" />
    <sodipodi:guide
       position="54.428571,227.54166"
       orientation="1,0"
       id="guide40"
       inkscape:locked="false" />
    <sodipodi:guide
       position="404.57925,114.12409"
       orientation="1,0"
       id="guide849"
       inkscape:locked="false" />
  </sodipodi:namedview>
  <metadata
     id="metadata918">
    <rdf:RDF>
      <cc:Work
         rdf:about="">
        <dc:format>image/svg+xml</dc:format>
        <dc:type
           rdf:resource="http://purl.org/dc/dcmitype/StillImage" />
        <dc:title />
      </cc:Work>
    </rdf:RDF>
  </metadata>
  <g
     inkscape:label="Layer 1"
     inkscape:groupmode="layer"
     id="layer1">
    <g
       transform="matrix(0.35277777,0,0,-0.35277777,-208.43528,454.96438)"
       id="g78">
      <path
         d="m 1154.4191,1144.0297 -165.76534,-126.7778 2.2276,54.5702 -112.6077,-86.78095 4.5795,67.84845 -66.7349,-35.147 0.087,1.9964 123.446,118.9043 -14.4774,-67.9353 112.48214,86.8685 -4.4545,-53.4574 121.1231,93.315 z"
         style="opacity:1;vector-effect:none;fill:#000000;fill-opacity:1;fill-rule:evenodd;stroke:none;stroke-width:0.5461126;stroke-linecap:butt;stroke-linejoin:miter;stroke-miterlimit:4;stroke-dasharray:none;stroke-dashoffset:0;stroke-opacity:1"
         id="path92"
         inkscape:connector-curvature="0"
         sodipodi:nodetypes="ccccccccccccc" />
      <g
         aria-label="adcast"
         transform="scale(1,-1)"
         style="font-style:normal;font-weight:normal;font-size:48.95823288px;line-height:125%;font-family:Sans;letter-spacing:0px;word-spacing:0px;fill:#000000;fill-opacity:1;stroke:none;stroke-width:1.22395587px;stroke-linecap:butt;stroke-linejoin:miter;stroke-opacity:1"
         id="text26">
        <path
           d="m 1302.9603,-1035.0907 h -2.82 c -10.81,0 -12.22,-5.64 -12.22,-22.3249 v -26.32 c 0,-39.0099 -12.925,-52.6399 -41.1249,-52.6399 -15.04,0 -29.61,4.465 -40.4199,11.515 l 2.82,19.27 c 12.4549,-7.52 21.6199,-9.635 31.0199,-9.635 15.98,0 23.4999,4.935 23.7349,23.9699 -26.7899,0.47 -67.6798,8.695 -67.6798,41.36 0,20.4449 14.335,34.0749 34.7799,34.0749 14.57,0 27.26,-6.11 35.4849,-15.745 4.7,9.87 10.575,15.745 28.67,15.745 h 4.7 z m -38.775,-12.69 c -6.5799,8.225 -16.9199,13.16 -26.0849,13.16 -10.81,0 -17.155,-4.935 -17.155,-16.4499 0,-15.98 15.51,-22.795 43.2399,-23.97 z"
           style="font-style:normal;font-variant:normal;font-weight:500;font-stretch:normal;font-size:234.99951172px;font-family:Cabin;-inkscape-font-specification:'Cabin Medium';stroke-width:1.22395587px"
           id="path833" />
        <path
           d="m 1422.6521,-1018.1707 v -176.2496 h -23.7349 v 70.2648 c -9.165,-9.4 -21.62,-12.22 -32.665,-12.22 -34.0749,0 -54.0498,28.435 -54.0498,60.3949 0,33.3699 21.8549,60.1599 54.0498,60.1599 11.28,0 24.44,-4.935 32.9,-14.1 l 1.88,11.75 z m -54.7549,-97.5248 c 17.625,0 32.9,14.335 32.9,40.1849 0,26.3199 -15.275,39.0099 -32.9,39.0099 -19.5049,0 -31.2549,-17.1549 -31.2549,-39.4799 0,-23.0299 11.75,-39.7149 31.2549,-39.7149 z"
           style="font-style:normal;font-variant:normal;font-weight:500;font-stretch:normal;font-size:234.99951172px;font-family:Cabin;-inkscape-font-specification:'Cabin Medium';stroke-width:1.22395587px"
           id="path835" />
        <path
           d="m 1501.2705,-1015.8207 c 18.5649,0 27.9649,-4.23 35.0149,-8.695 l -2.82,-19.74 c -9.165,5.17 -19.035,7.99 -30.0799,7.99 -23.265,0 -35.015,-15.9799 -35.015,-39.9499 0,-24.4399 11.75,-39.4799 35.015,-39.4799 11.0449,0 20.6799,2.82 30.0799,7.99 l 3.055,-21.15 c -7.05,-3.995 -17.625,-7.52 -35.4849,-7.52 -38.07,0 -57.1049,26.79 -57.1049,60.1599 0,32.4299 19.2699,60.3949 57.3399,60.3949 z"
           style="font-style:normal;font-variant:normal;font-weight:500;font-stretch:normal;font-size:234.99951172px;font-family:Cabin;-inkscape-font-specification:'Cabin Medium';stroke-width:1.22395587px"
           id="path837" />
        <path
           d="m 1655.0005,-1035.0907 h -2.82 c -10.8099,0 -12.2199,-5.64 -12.2199,-22.3249 v -26.32 c 0,-39.0099 -12.925,-52.6399 -41.1249,-52.6399 -15.04,0 -29.61,4.465 -40.42,11.515 l 2.82,19.27 c 12.455,-7.52 21.62,-9.635 31.02,-9.635 15.9799,0 23.4999,4.935 23.7349,23.9699 -26.7899,0.47 -67.6798,8.695 -67.6798,41.36 0,20.4449 14.3349,34.0749 34.7799,34.0749 14.57,0 27.2599,-6.11 35.4849,-15.745 4.7,9.87 10.575,15.745 28.67,15.745 h 4.6999 z m -38.7749,-12.69 c -6.58,8.225 -16.9199,13.16 -26.0849,13.16 -10.81,0 -17.155,-4.935 -17.155,-16.4499 0,-15.98 15.51,-22.795 43.2399,-23.97 z"
           style="font-style:normal;font-variant:normal;font-weight:500;font-stretch:normal;font-size:234.99951172px;font-family:Cabin;-inkscape-font-specification:'Cabin Medium';stroke-width:1.22395587px"
           id="path839" />
        <path
           d="m 1704.1925,-1015.8207 c 36.895,0 44.65,-19.505 44.65,-34.3099 0,-24.205 -19.74,-31.255 -32.665,-35.015 -16.9199,-4.935 -26.7899,-7.52 -26.7899,-18.3299 0,-10.34 9.165,-14.805 21.3849,-14.805 12.925,0 23.03,5.405 29.61,11.045 l 2.585,-21.15 c -6.815,-3.76 -17.86,-7.99 -33.135,-7.99 -32.1949,0 -43.2399,18.33 -43.2399,35.485 0,23.0299 19.27,28.6699 35.2499,33.1349 10.34,2.82 22.56,7.05 22.56,18.3299 0,7.99 -6.58,13.865 -21.15,13.865 -15.9799,0 -30.3149,-7.05 -35.9549,-11.75 l -2.585,21.855 c 5.875,3.995 19.74,9.635 39.4799,9.635 z"
           style="font-style:normal;font-variant:normal;font-weight:500;font-stretch:normal;font-size:234.99951172px;font-family:Cabin;-inkscape-font-specification:'Cabin Medium';stroke-width:1.22395587px"
           id="path841" />
        <path
           d="m 1830.6039,-1035.0907 h -6.3449 c -20.445,0 -21.855,-1.41 -21.855,-21.8549 v -58.0449 h 28.6699 v -19.035 h -28.6699 v -30.0799 l -23.9699,2.35 v 27.7299 h -16.685 l -2.115,19.035 h 18.8 v 70.4998 c 0,14.335 8.6949,28.67 30.5499,28.67 h 19.7399 z"
           style="font-style:normal;font-variant:normal;font-weight:500;font-stretch:normal;font-size:234.99951172px;font-family:Cabin;-inkscape-font-specification:'Cabin Medium';stroke-width:1.22395587px"
           id="path843" />
      </g>
    </g>
  </g>
</svg>
